<svg xmlns="http://www.w3.org/2000/svg" viewBox="0 0 50.47 62.11"><defs><style>.cls-1{fill-rule:evenodd;}</style></defs><title>Recurso 3</title><g id="Capa_2" data-name="Capa 2"><g id="Capa_1-2" data-name="Capa 1"><path class="cls-1" d="M25.21,11.64A25.24,25.24,0,1,1,0,36.9,25.32,25.32,0,0,1,25.21,11.64Zm0,3.89A21.34,21.34,0,1,0,46.56,36.88,21.32,21.32,0,0,0,25.23,15.53Z"/><path class="cls-1" d="M29.11,7.83V10a24.44,24.44,0,0,0-7.73,0V7.8A2,2,0,0,1,19.5,6.35a2.41,2.41,0,0,1-.08-.6c0-1.24,0-2.48,0-3.71a1.92,1.92,0,0,1,2-2H29a1.92,1.92,0,0,1,2.05,2.08v3.2C31.05,6.89,30.66,7.41,29.11,7.83Z"/><path class="cls-1" d="M15.17,11.66a28.47,28.47,0,0,0-6.68,3.87,1.35,1.35,0,0,1-.22-.28C7.65,14.19,7,13.12,6.42,12a1.92,1.92,0,0,1,.71-2.8c1.08-.65,2.19-1.28,3.3-1.9a1.82,1.82,0,0,1,2.45.47C13.68,9,14.39,10.33,15.17,11.66Z"/><path class="cls-1" d="M42,15.55a27.49,27.49,0,0,0-6.66-3.86c.08-.16.12-.28.18-.4.59-1,1.18-2,1.78-3.07a1.94,1.94,0,0,1,2.89-.8c1,.57,2,1.16,3,1.75a2,2,0,0,1,.78,3l-1.73,3C42.2,15.26,42.11,15.38,42,15.55Z"/></g></g></svg>