<svg xmlns="http://www.w3.org/2000/svg" viewBox="0 0 596.2 95.61"><title>Recurso 13</title><g id="Capa_2" data-name="Capa 2"><g id="Capa_1-2" data-name="Capa 1"><path d="M361,18.64c.31-.18.51-.14.62.07s0,.34-.29.52c-.45.28-.88.57-1.31.87a.6.6,0,0,0-.27.3,2.59,2.59,0,0,0,0,.55,2.13,2.13,0,0,0,.35-.14c.41-.23.82-.48,1.22-.72.22-.13.42-.15.56.09s0,.36-.25.51c-.43.26-.86.52-1.28.8a.94.94,0,0,0-.35.39,1.52,1.52,0,0,0,.06.5,1.83,1.83,0,0,0,.33-.11c.42-.23.83-.48,1.26-.71.27-.15.47-.1.55.11s-.06.39-.27.5-.63.32-.93.51a2.16,2.16,0,0,0-.65.55c-.09.12,0,.37,0,.56a2.25,2.25,0,0,0,.35-.09c.45-.23.88-.48,1.33-.71a.34.34,0,0,1,.5.16c.09.21,0,.35-.23.46-.5.26-1,.56-1.49.84-.28.15-.3.37-.21.65s.14.2.31.11c.46-.25.95-.48,1.41-.75a.31.31,0,0,1,.48.14c.11.21,0,.38-.2.48l-.4.19L361,26a.5.5,0,0,0,0,.66c.06.05.25,0,.37-.05.44-.21.87-.43,1.31-.63a.31.31,0,0,1,.48.17c.09.24,0,.36-.25.46-.51.25-1,.51-1.52.79-.09,0-.2.2-.18.28a2.54,2.54,0,0,0,2,2.27c.41.08.83.09,1.28.14l.08.24.86,2.87a1.28,1.28,0,0,0,1.13,1,1.79,1.79,0,0,0,2-1.9c0-.38-.11-.75-.16-1.12l-.24-1.6.32-.08a8.33,8.33,0,0,0,2.48-1.09,1.9,1.9,0,0,0,.91-1.81c-.06-.46-.18-.91-.27-1.36,0-.19-.18-.24-.36-.24h-1.15c-.23,0-.4-.1-.4-.34s.17-.34.4-.34l.89,0c.12,0,.31,0,.33-.08a.42.42,0,0,0,0-.38.86.86,0,0,0-.45-.28,7.13,7.13,0,0,0-1-.07c-.23,0-.39-.11-.39-.35s.18-.33.41-.32.67,0,1,0,.25,0,.22-.24a.53.53,0,0,0-.46-.5c-.37-.05-.75-.08-1.12-.11a.34.34,0,1,1,0-.67l.33,0,.9.06c0-.41-.08-.65-.43-.72a8.78,8.78,0,0,0-1-.13c-.29,0-.46-.17-.43-.38s.25-.33.49-.31l.26,0,.82.08a.6.6,0,0,0-.51-.75c-.33-.07-.68-.09-1-.14s-.33-.14-.32-.35a.31.31,0,0,1,.35-.32l.33,0,.86.12a.62.62,0,0,0-.52-.76c-.33-.08-.68-.11-1-.17a.33.33,0,0,1,.07-.66l.26,0,1,.14a3.68,3.68,0,0,0-.79-1.88c.09.34.16.62.22.89s0,.32-.21.35-.28-.06-.31-.24a1.22,1.22,0,0,0-.06-.26,7.45,7.45,0,0,0-.55-1.22,1.56,1.56,0,0,0-1.34-.69,2.58,2.58,0,0,1,1.14,2c0,.2,0,.35-.25.39s-.31-.1-.36-.3a5.41,5.41,0,0,0-.4-1.13A1.85,1.85,0,0,0,365,14a2.29,2.29,0,0,1,1,1.73c.06.32,0,.48-.26.53s-.36-.07-.43-.4a4.25,4.25,0,0,0-.24-.79,1.33,1.33,0,0,0-1.74-.68,15.12,15.12,0,0,0-1.41.67,5.7,5.7,0,0,0-1.84,1.46,3.24,3.24,0,0,0-.62,3Zm5.56,14.91a.67.67,0,0,1,0-1.32.67.67,0,0,1,0,1.32Zm.93-4.67a7.5,7.5,0,0,1-.91.42.67.67,0,0,1-.37,0c-.11,0-.2-.13-.29-.2.07-.08.13-.19.23-.24.27-.15.57-.26.84-.41a1.31,1.31,0,0,0,.71-1.27c0-.34-.07-.67-.12-1s0-.45.29-.49.34.16.37.35c.07.4.12.8.18,1.2A1.7,1.7,0,0,1,367.45,28.88Zm3.29-1.78a11.4,11.4,0,0,0-.1-1.15c0-.06,0-.13,0-.2s0-.35.23-.34a.42.42,0,0,1,.3.25,7.66,7.66,0,0,1,.11,1.26,1.63,1.63,0,0,1-.85,1.38c-.23.15-.49.27-.74.4l0-.06.32-.18A1.49,1.49,0,0,0,370.74,27.1ZM369.34,26c0-.22,0-.39.25-.42s.33.11.35.31c.05.42.11.84.12,1.26a1.52,1.52,0,0,1-.7,1.33,5.69,5.69,0,0,1-.95.49,1.34,1.34,0,0,1-.4.06l0-.12a2.69,2.69,0,0,1,.27-.2c.18-.1.37-.19.54-.3a1.41,1.41,0,0,0,.69-1.3C369.45,26.69,369.39,26.32,369.34,26Zm-.24-1.4c0,.22-.12.37-.41.39a16.68,16.68,0,0,0-3.64.81l-.35.11c-.08-.09-.21-.17-.25-.29a.33.33,0,0,1,.23-.42c.8-.23,1.59-.46,2.4-.65.48-.12,1-.17,1.49-.25A.44.44,0,0,1,369.1,24.55Zm-.3-1.45c0,.21-.08.33-.33.35a13.5,13.5,0,0,0-1.79.24c-.62.14-1.22.38-1.84.56a1.1,1.1,0,0,1-.54,0,.38.38,0,0,1-.21-.29.38.38,0,0,1,.22-.3c.85-.27,1.72-.53,2.59-.77a3.52,3.52,0,0,1,.72-.09l.83,0A.31.31,0,0,1,368.8,23.1Zm-.29-1.47c0,.24-.18.31-.4.34a15,15,0,0,0-1.9.24,17,17,0,0,0-1.84.56c-.23.08-.43.11-.55-.15s0-.37.32-.49a11.84,11.84,0,0,1,3.7-.84,1.92,1.92,0,0,0,.24,0C368.32,21.28,368.5,21.37,368.51,21.63Zm-.3-1.49c0,.21-.15.34-.45.34a9.29,9.29,0,0,0-3.49.7l-.3.11c-.21.08-.39,0-.47-.17a.33.33,0,0,1,.22-.45,11,11,0,0,1,2.87-.79l.77-.07c.17,0,.27,0,.38,0S368.19,19.86,368.21,20.14Zm-.29-1.47c0,.28-.21.34-.46.33a8.47,8.47,0,0,0-3.71.75l-.3.1c-.09-.07-.24-.15-.26-.25a.52.52,0,0,1,.12-.38c.05-.07.18-.09.28-.14a9.18,9.18,0,0,1,3.87-.75C367.76,18.34,367.94,18.46,367.92,18.67Zm-4.86-1a16.86,16.86,0,0,1,2.05-.66,16.53,16.53,0,0,1,2.12-.14c.23,0,.4.1.39.34s-.17.33-.4.33-.48,0-.71,0a7.22,7.22,0,0,0-2.93.64l-.24.1a.32.32,0,0,1-.47-.15A.31.31,0,0,1,363.06,17.66Z"/><path d="M330.81,30.72a.45.45,0,0,0,.61.21l.88-.43c0-.07.07-.14.11-.2,0-.31-.17-.52-.28-.79a2.64,2.64,0,0,1-1.56.73.44.44,0,0,1,.05.09Z"/><path d="M320.26,14.12c.14,0,.3-.07.45-.11a19.19,19.19,0,0,0,3.76-1.51,8.82,8.82,0,0,0,1.72-1.1.18.18,0,0,0,.06-.26,3.41,3.41,0,0,0-6.13-.32,2,2,0,0,0-.11.2,1.47,1.47,0,0,0-.1.22A3.42,3.42,0,0,0,320,14C320.06,14.11,320.12,14.16,320.26,14.12Z"/><path d="M330.73,21l-3.86,1.85a1.33,1.33,0,0,0-.27.21.65.65,0,0,0,0,.74c.23.32.46.64.67,1a.67.67,0,0,0,.91.31l1.11-.45,2.35-1a.65.65,0,0,0,.42-.8c-.14-.48-.27-1-.41-1.45A.64.64,0,0,0,330.73,21Z"/><path d="M321,14.41l-.61.19a3.32,3.32,0,0,0,1.82,1.21.22.22,0,0,0,.16,0A14.55,14.55,0,0,0,326,14.12a.74.74,0,0,0,.24-.31,3.35,3.35,0,0,0,.21-2,.61.61,0,0,1,0-.14,8.49,8.49,0,0,1-2,1.37A21.9,21.9,0,0,1,321,14.41Z"/><path d="M330.93,24.25l-2.86,1.09a.38.38,0,0,0-.28.52c.08.3.15.61.24.91a1.21,1.21,0,0,0,.16.29,2.16,2.16,0,0,0,.36,0c.18,0,.35-.09.53-.13l3.31-.86a.41.41,0,0,0,.34-.59c-.1-.37-.19-.74-.29-1.1a1.87,1.87,0,0,0-.2-.4.25.25,0,0,0-.34-.09Z"/><path d="M327.86,19.05c-.22.12-.23.24-.09.43a.76.76,0,0,1,.08.11c.22.29.46.57.66.88s.15.35-.05.57-.28.3-.41.46a.65.65,0,0,0-.17.52,1,1,0,0,0,.25,0c.5-.19,1-.36,1.5-.59s1.12-.62,1.66-.94a.63.63,0,0,0,.25-.85c-.27-.48-.54-1-.83-1.45a.62.62,0,0,0-.83-.23C329.2,18.29,328.53,18.67,327.86,19.05Z"/><path d="M326,17a3.15,3.15,0,0,0,.28.51c.28.39.57.77.86,1.15a1.82,1.82,0,0,0,.14.14.55.55,0,0,0,.57,0l1.81-1c.32-.17.37-.32.22-.64s-.46-.91-.71-1.35a.63.63,0,0,0-.84-.26l-2.21,1.1C325.91,16.74,325.88,16.82,326,17Z"/><path d="M332.2,28.77c-.28-.68-.54-1.36-.81-2.05a1.22,1.22,0,0,0-.08-.17l-2.78.73.07.13c.44.8.89,1.59,1.32,2.4a.4.4,0,0,0,.4.23,2.57,2.57,0,0,0,1.8-.84A.38.38,0,0,0,332.2,28.77Z"/><path d="M322.43,16.17l.56,1,.21-.1c.41-.18.81-.37,1.22-.52a1,1,0,0,1,1.27.23c.21-.29.24-.32.45-.41l.85-.34-.66-1.7A15.4,15.4,0,0,1,322.43,16.17Z"/><path d="M327.44,22.22s0,0,0,0l-.17-.05c-.6-.15-1.21-.29-1.8-.46-.34-.1-.4-.21-.42-.56,0-.08-.05-.2-.11-.23a.37.37,0,0,0-.29,0c-.13.06-.13.2-.08.33a7.34,7.34,0,0,0,.92,1.64.17.17,0,0,0,.22.07l1.57-.59Z"/><path d="M301.28,7.35l5.5-2.26-.59-.4L309.28,3l-1-.4L311.35.13,311.29,0l-6.88,3,.31.71-2.07,1.39.64.39-2.08,1.8Z"/><path d="M287.32,13.93c-.1.48-.18.88-.27,1.35l4.17-2.41c-.1.38-.16.63-.26,1L295.75,10l-.06-.11-3.37,1.51c.36-.6.63-1.06.89-1.52l-.07-.09-3.29,2c0-.37-.06-.64-.09-1l-5.32,4.37.1.13Z"/><path d="M286,3,289.8,4.7l-1,.38,6.45,2.25,0-.1L292,5.1,293.28,5l-2.72-1.71,1-.37L284.64.65l-.05.12L287,2.58Z"/><path d="M301.51,10.66l3.87,3.54c0-.36.05-.61.08-1l3.44,2c.06-.25.11-.42.16-.61l2.64,1.15.06-.13-5.18-4.5c0,.36-.08.63-.12.95l-3.07-1.68c.08.36.14.62.21,1l-2-.85Z"/><path d="M337.55,31.67c-1-4.49-.74-8.63,3.06-11.87a5.92,5.92,0,0,0-4.33,4.73,9.39,9.39,0,0,0,1,6.75Z"/><path d="M338.31,25a7.56,7.56,0,0,0,.69,5.66,2.39,2.39,0,0,0,.13.21s.05,0,.18.13a9.41,9.41,0,0,1-.2-5.17,6.62,6.62,0,0,1,2.56-4.25A4.63,4.63,0,0,0,338.31,25Z"/><path d="M342.72,23c-2.74.58-3.83,4.67-2,7.38a8.25,8.25,0,0,1-.09-4A5.33,5.33,0,0,1,342.72,23Z"/><path d="M225.26,28.32a8.33,8.33,0,0,0,2.48,1.09l.33.08c-.09.54-.17,1.07-.25,1.6,0,.37-.13.74-.16,1.12a1.8,1.8,0,0,0,2,1.9,1.27,1.27,0,0,0,1.12-1l.86-2.87.08-.24c.45-.05.87-.06,1.29-.14A2.55,2.55,0,0,0,235,27.64c0-.08-.09-.24-.18-.28-.5-.28-1-.54-1.52-.79-.2-.1-.34-.22-.25-.46a.32.32,0,0,1,.49-.17l1.3.63c.12.05.31.1.38.05a.5.5,0,0,0,0-.66c-.39-.24-.8-.46-1.2-.69l-.4-.19c-.21-.1-.31-.27-.2-.48a.32.32,0,0,1,.49-.14c.45.27.94.5,1.41.75.16.09.24.07.3-.11s.07-.5-.21-.65c-.5-.28-1-.58-1.49-.84-.22-.11-.32-.25-.23-.46a.34.34,0,0,1,.5-.16c.45.23.89.48,1.33.71a2.11,2.11,0,0,0,.36.09c0-.19.1-.44,0-.56a2,2,0,0,0-.65-.55,10.45,10.45,0,0,0-.93-.51c-.21-.11-.38-.23-.27-.5s.28-.26.55-.11c.43.23.84.48,1.26.71a1.83,1.83,0,0,0,.33.11,1.12,1.12,0,0,0,.06-.5.82.82,0,0,0-.35-.39c-.41-.28-.84-.54-1.28-.8-.26-.15-.36-.32-.25-.51s.35-.22.56-.09c.41.24.81.49,1.22.72a2.13,2.13,0,0,0,.35.14,2.07,2.07,0,0,0,0-.55.6.6,0,0,0-.27-.3c-.43-.3-.86-.59-1.3-.87-.29-.18-.39-.32-.29-.52s.3-.25.61-.07l1.53.95a3.21,3.21,0,0,0-.62-3,5.7,5.7,0,0,0-1.84-1.46,14,14,0,0,0-1.41-.67,1.33,1.33,0,0,0-1.74.68,4.25,4.25,0,0,0-.24.79c-.07.33-.18.45-.42.4s-.33-.21-.27-.53a2.32,2.32,0,0,1,1-1.73,1.86,1.86,0,0,0-1.86.93,5.39,5.39,0,0,0-.39,1.13c-.06.2-.15.33-.37.3s-.28-.19-.25-.39a2.58,2.58,0,0,1,1.14-2,1.53,1.53,0,0,0-1.33.69,7.49,7.49,0,0,0-.56,1.22,1.19,1.19,0,0,0-.05.26c0,.18-.14.27-.31.24s-.26-.17-.22-.35.13-.55.22-.89a3.59,3.59,0,0,0-.78,1.88l.94-.14.26,0a.32.32,0,0,1,.36.28.31.31,0,0,1-.29.38c-.34.06-.68.09-1,.17a.62.62,0,0,0-.52.76l.87-.12.32,0a.33.33,0,0,1,.36.32c0,.21-.12.32-.33.35s-.68.07-1,.14a.6.6,0,0,0-.51.75l.82-.08.26,0c.24,0,.45,0,.49.31s-.14.34-.43.38a8.78,8.78,0,0,0-1,.13c-.34.07-.47.31-.42.72l.9-.06.32,0a.34.34,0,1,1,0,.67c-.37,0-.74.06-1.12.11a.53.53,0,0,0-.46.5c0,.19,0,.26.22.24.34,0,.67,0,1,0s.4.08.4.32-.15.34-.38.35a7.17,7.17,0,0,0-1,.07.84.84,0,0,0-.44.28.42.42,0,0,0-.05.38c0,.06.21.08.33.08l.89,0c.23,0,.4.1.4.34s-.16.34-.4.34H225c-.18,0-.31.05-.35.24a12.58,12.58,0,0,0-.27,1.36A1.88,1.88,0,0,0,225.26,28.32Zm4.43,5.23a.61.61,0,0,1-.54-.66.62.62,0,0,1,.54-.66.67.67,0,0,1,0,1.32Zm.35-4.22a.71.71,0,0,1-.38,0,7.5,7.5,0,0,1-.91-.42,1.7,1.7,0,0,1-.93-1.61c.06-.4.11-.8.18-1.2,0-.19.1-.4.37-.35s.33.2.29.49-.1.66-.12,1a1.31,1.31,0,0,0,.71,1.27c.27.15.57.26.85.41.09.05.15.16.23.24C230.23,29.2,230.14,29.31,230,29.33ZM229,16.86a16.53,16.53,0,0,1,2.12.14,16.86,16.86,0,0,1,2,.66.34.34,0,1,1-.27.61l-.25-.1a7.21,7.21,0,0,0-2.92-.64c-.24,0-.48,0-.72,0s-.4-.08-.4-.33S228.74,16.85,229,16.86Zm-.22,1.47a9.14,9.14,0,0,1,3.86.75c.1.05.23.07.28.14a.52.52,0,0,1,.12.38c0,.1-.17.18-.26.25l-.29-.1a8.52,8.52,0,0,0-3.72-.75c-.25,0-.44-.05-.46-.33S228.44,18.34,228.75,18.33Zm-.29,1.48c.11,0,.22,0,.38,0l.77.07a11,11,0,0,1,2.87.79.32.32,0,0,1,.22.45c-.08.21-.26.25-.47.17l-.3-.11a9.29,9.29,0,0,0-3.49-.7c-.3,0-.47-.13-.45-.34S228.21,19.8,228.46,19.81Zm-.34,1.48a1.92,1.92,0,0,0,.24,0,11.72,11.72,0,0,1,3.7.84c.3.12.42.29.32.49s-.32.23-.55.15a17.49,17.49,0,0,0-1.83-.56,15.18,15.18,0,0,0-1.9-.24c-.23,0-.4-.1-.4-.34S227.88,21.28,228.12,21.29Zm-.36,1.49.82,0a3.36,3.36,0,0,1,.72.09c.87.24,1.74.5,2.59.77a.38.38,0,0,1,.22.3.34.34,0,0,1-.21.29,1.1,1.1,0,0,1-.54,0c-.62-.18-1.22-.42-1.84-.56a13.28,13.28,0,0,0-1.79-.24c-.24,0-.34-.14-.33-.35A.32.32,0,0,1,227.76,22.78Zm-.13,1.47c.5.08,1,.13,1.5.25.8.19,1.59.42,2.39.65a.31.31,0,0,1,.23.42c0,.12-.17.2-.25.29l-.35-.11a16.72,16.72,0,0,0-3.63-.81c-.3,0-.45-.17-.41-.39A.42.42,0,0,1,227.63,24.25Zm-1.37,1.59c0-.2.14-.35.36-.31s.28.2.24.42a10.46,10.46,0,0,0-.12,1.11,1.38,1.38,0,0,0,.68,1.3l.54.3a2.69,2.69,0,0,1,.27.2.56.56,0,0,1,0,.12,1.34,1.34,0,0,1-.4-.06,5.24,5.24,0,0,1-.94-.49,1.51,1.51,0,0,1-.71-1.33C226.15,26.68,226.21,26.26,226.26,25.84Zm-1.18-.18a.39.39,0,0,1,.29-.25c.19,0,.25.16.23.34s0,.14,0,.2c0,.39-.09.77-.1,1.15a1.49,1.49,0,0,0,.81,1.36l.31.18,0,.06c-.25-.13-.5-.25-.74-.4a1.63,1.63,0,0,1-.85-1.38A6.72,6.72,0,0,1,225.08,25.66Z"/><path d="M263.79,30.3a1.28,1.28,0,0,1,.11.2l.89.43a.44.44,0,0,0,.6-.21c.07-.13.13-.26.19-.39a.36.36,0,0,0,.05-.09,2.67,2.67,0,0,1-1.56-.73C264,29.78,263.76,30,263.79,30.3Z"/><path d="M271.73,12.5A19.44,19.44,0,0,0,275.49,14c.15,0,.31.06.46.11s.19,0,.25-.13a3.46,3.46,0,0,0,.09-2.75,1.47,1.47,0,0,0-.1-.22,2,2,0,0,0-.11-.2,3.42,3.42,0,0,0-4.87-1.19A3.37,3.37,0,0,0,270,11.14a.19.19,0,0,0,.06.26A8.82,8.82,0,0,0,271.73,12.5Z"/><path d="M264.57,23.65l2.35,1,1.11.45a.66.66,0,0,0,.9-.31c.21-.33.44-.65.67-1a.64.64,0,0,0,0-.74,1.84,1.84,0,0,0-.28-.21L265.47,21a.63.63,0,0,0-.91.41l-.42,1.45A.65.65,0,0,0,264.57,23.65Z"/><path d="M270.19,14.12a14.33,14.33,0,0,0,3.64,1.68.22.22,0,0,0,.16,0,3.32,3.32,0,0,0,1.82-1.21l-.61-.19a22.3,22.3,0,0,1-3.42-1.35,8.69,8.69,0,0,1-2-1.37.61.61,0,0,1,0,.14,3.44,3.44,0,0,0,.21,2A.69.69,0,0,0,270.19,14.12Z"/><path d="M263.81,26.07l3.31.86c.18,0,.35.1.53.13a2.28,2.28,0,0,0,.37,0,1.61,1.61,0,0,0,.15-.29c.09-.3.17-.61.24-.91a.38.38,0,0,0-.27-.52l-2.87-1.09-1-.36A.25.25,0,0,0,264,24a1.47,1.47,0,0,0-.19.4c-.11.36-.2.73-.3,1.1A.41.41,0,0,0,263.81,26.07Z"/><path d="M264.91,20.45c.55.32,1.09.66,1.66.94s1,.4,1.5.59a1,1,0,0,0,.26,0,.69.69,0,0,0-.18-.52c-.13-.16-.27-.3-.41-.46s-.22-.33-.05-.57.44-.59.66-.88a.76.76,0,0,1,.08-.11c.14-.19.13-.31-.09-.43-.67-.38-1.34-.76-2-1.13a.62.62,0,0,0-.83.23c-.28.48-.56,1-.82,1.45A.62.62,0,0,0,264.91,20.45Z"/><path d="M266.58,17.8l1.81,1a.57.57,0,0,0,.58,0l.13-.14c.29-.38.58-.76.86-1.15a3.15,3.15,0,0,0,.28-.51c.09-.17.05-.25-.12-.34l-2.21-1.1a.63.63,0,0,0-.84.26c-.24.44-.48.89-.7,1.35S266.26,17.63,266.58,17.8Z"/><path d="M266.28,29.81c.43-.81.88-1.6,1.32-2.4l.07-.13-2.78-.73-.08.17c-.27.69-.53,1.37-.8,2.05a.36.36,0,0,0,.07.43,2.59,2.59,0,0,0,1.8.84A.39.39,0,0,0,266.28,29.81Z"/><path d="M270.51,16.8a1,1,0,0,1,1.27-.23c.41.15.81.34,1.22.52l.21.1.57-1a15.3,15.3,0,0,1-3.91-1.82l-.66,1.7.85.34C270.28,16.48,270.31,16.51,270.51,16.8Z"/><path d="M270.73,22.84a6.93,6.93,0,0,0,.91-1.64c.05-.13.05-.27-.08-.33a.37.37,0,0,0-.29,0c-.06,0-.1.15-.11.23,0,.35-.07.46-.42.56-.59.17-1.2.31-1.79.46l-.17.05s0,0,0,0l.17.1,1.57.59A.18.18,0,0,0,270.73,22.84Z"/><path d="M258.65,31.67l.24-.39a9.39,9.39,0,0,0,1-6.75,5.92,5.92,0,0,0-4.33-4.73C259.39,23,259.62,27.18,258.65,31.67Z"/><path d="M257.09,25.78A9.5,9.5,0,0,1,256.9,31c.12-.09.16-.11.17-.13a2.39,2.39,0,0,0,.13-.21,7.56,7.56,0,0,0,.7-5.66,4.65,4.65,0,0,0-3.37-3.42A6.62,6.62,0,0,1,257.09,25.78Z"/><path d="M255.54,26.38a8.38,8.38,0,0,1-.08,4c1.85-2.71.76-6.8-2-7.38A5.29,5.29,0,0,1,255.54,26.38Z"/><path d="M555.34,56.86l.11.74-12.58-2.11-5.64,2.11L531.9,55l-10.16-.32-4.19,1.13h-5.49l-.64-3.07-4.14-1.18-.86,2.48-5.65.16L499,52l-6.09-.81-4.19.49-1,4.19h-4V50.51l-1.46-.16v4l-2.74.64V52.76h-1.61V49.27h-5v1.88h-4.64V49.27h-3.71V55h-5.42V47.76l-4.27-.8V52.6l-4.18,1.13-3-4.46h0c.41-2.69.83-5.38,1.24-8.07a1.79,1.79,0,0,0-.34-.53,3.82,3.82,0,0,0-1.24-.67,1.17,1.17,0,0,1-.33-.14,1.47,1.47,0,0,0-1.92.44,2.47,2.47,0,0,1-.28.28l-.08,0a3.61,3.61,0,0,1,.24-.62,1.21,1.21,0,0,0,.24-.6.5.5,0,0,1,.12-.24,1.6,1.6,0,0,0,.42-1.45c-.08-.35-.2-.7-.3-1a1.08,1.08,0,0,0-.69-.72c-.2-.08-.4-.14-.63-.22,0-.19,0-.39,0-.58.11-1,.22-2,.32-3a3.77,3.77,0,0,0,0-.47,4.48,4.48,0,0,1-.06-.63,1.24,1.24,0,0,0-.32-1,3.43,3.43,0,0,0-.49-.36,1.13,1.13,0,0,1-.44-.53l.21.18c0-.05,0-.09,0-.15l.11.08.37-.27a.26.26,0,0,0,.06-.35.29.29,0,0,1-.06-.21s.11-.06.18-.09l.13,0-.1-.19.34-.37,0,0-.33.28c-.11-.21-.08-.37.18-.49h-.24l.16-.18c-.12,0-.28.11-.25-.09s0-.39,0-.59a.89.89,0,0,1,.07-.19c0-.05-.12-.13-.12-.21,0-.28-.18-.4-.41-.49a.83.83,0,0,1-.28-.21,1,1,0,0,0-.93-.41.53.53,0,0,1-.28,0,1.11,1.11,0,0,0-1.13.11c-.1,0-.18-.09-.23-.07s-.29.12-.34.23-.35.34-.34.62-.29.48.07.6c0,.2,0,.38,0,.56s-.19.24-.22.38a1.88,1.88,0,0,0,0,1.05s0,0,0,.06,0,.27,0,.43a2.33,2.33,0,0,1-1.17-.27l-1.19-.46a1.66,1.66,0,0,0-.17-.24c-.19-.16-.41-.3-.59-.47-.48-.45-1-.91-1.43-1.38a.59.59,0,0,1-.13-.6c0-.15.09-.3.12-.46a.33.33,0,0,0-.05-.21,1,1,0,0,0-.24-.27c-.1-.06-.26-.14-.33-.1s-.53,0-.58.35c-.2,0-.12.17-.09.29l.1.4c0,.17.05.34.1.51a.47.47,0,0,0,.14.27,1.31,1.31,0,0,1,.48.59,13.34,13.34,0,0,0,1.33,2.13c.1.12.21.23.32.34a3,3,0,0,0,.45.42c.23.16.49.28.74.42l.42.24.25.13a.67.67,0,0,0,.2.12l1.53.42a1,1,0,0,1-.13.77,1.19,1.19,0,0,0-.06,1.28,1.47,1.47,0,0,1,.28,1.1c0,.07,0,.16,0,.23s-.1.4-.14.6h-.07c-.18-.24-.41-.15-.64-.13l-1,.1a1.09,1.09,0,0,0-.72.48,1.41,1.41,0,0,0-.18.29c-.06.21-.09.43-.14.68l-.49-.58,0,0,.09,0,0-.16.22.19,0,0c-.16-.11-.19-.39-.48-.35,0,0-.05,0-.07-.06s-.28-.32-.43-.47-.18-.2-.26-.19c-.25,0-.49-.23-.74,0,0,0-.08,0-.12,0h-.18l-.26,0-.34.08a.29.29,0,0,1-.18,0c-.11,0-.21-.09-.34-.14l.22,0-.11-.08h.19c-.39-.1-.5.19-.7.37a2.53,2.53,0,0,0,.13-.22c-.12.13-.17.33-.29.44a.7.7,0,0,0-.23.73.65.65,0,0,1-.12-.11,4.46,4.46,0,0,0-.9-1.08,8,8,0,0,1-.66-.64c-.47-.54-.94-1.09-1.39-1.66a5.4,5.4,0,0,1-.52-.82c-.14-.27-.37-.42-.56-.33l-.37.16c-.3.12-.41.27-.37.51-.28.08-.31.16-.09.36a1.27,1.27,0,0,0,.33.22,4.91,4.91,0,0,0,.5.28,1,1,0,0,0,.4.1.26.26,0,0,1,.3.16l.68,1.49a8.92,8.92,0,0,0,1.76,2.84c0,.12,0,.25,0,.32s.18.13.28.2c-.24.23.08.37.11.56l-.29.23c.21.12.16.27.09.43a.81.81,0,0,0-.06.31c0,.43.19.67.58.66a3.85,3.85,0,0,0,.47-.08c0,.27,0,.53-.06.85l-.78.4c-.14-.24-.26-.48-.4-.7a.54.54,0,0,1,0-.55,1,1,0,0,0,.08-.39,7.43,7.43,0,0,0-.09-.81.41.41,0,0,0-.12-.29.28.28,0,0,1-.09-.37.25.25,0,0,0-.14-.34.59.59,0,0,1-.33-.42,1,1,0,0,0-.51-.65,2.65,2.65,0,0,1-.6-.44.85.85,0,0,0-1.23-.06h0l-.23.42c0-.32,0-.34.23-.42h0c-.13,0-.29,0-.37,0a2.87,2.87,0,0,0-.35.47.3.3,0,0,0,0,.44l-.13.16-.17.19c0-.23-.07-.41-.09-.58a2.29,2.29,0,0,1,.29-1.15,2,2,0,0,0-.06-1.89,6.33,6.33,0,0,0-.64-.83.41.41,0,0,0-.11-.07,2.1,2.1,0,0,0-2.7.89l.11.06c0,.08-.07.13-.09.19a2.69,2.69,0,0,0-.23,1,1.83,1.83,0,0,1-.13.68l0,.06c-.09.22-.05.29.18.34a.4.4,0,0,1,.16.07c-.07.2.09.27.17.33s-.12.27-.09.32a.27.27,0,0,1,0,.33c-.11.24,0,.37.23.35a.72.72,0,0,1,.69.19,3.68,3.68,0,0,1,.32.66,4.32,4.32,0,0,0-.57.14,1.62,1.62,0,0,0-.52.32,1.16,1.16,0,0,0-.42.73s-.07.09-.09.14a3.37,3.37,0,0,0-.32.59,2.85,2.85,0,0,1-.5,1,2.58,2.58,0,0,0-.57-1.1c-.32-.41-.62-.84-.94-1.25a2,2,0,0,0-.23-.18c-.22-.17-.53-.24-.57-.6s0-.34.25-.42c.07,0,.18-.12.18-.17a1.89,1.89,0,0,1,.29-1.11,1.35,1.35,0,0,0,.13-1.06c-.08-.23-.15-.46-.23-.71l.09,0,0-.05c-.13-.12-.26-.26-.4-.37s-.34-.19-.43-.34a1.15,1.15,0,0,0-.91-.49l-.58-.05c.12-.16.26-.22.43-.09l.06-.06-.18-.09,0,0,.14,0-.14-.14.08,0-.23-.13.11-.09a1,1,0,0,0-1.2.67,1.32,1.32,0,0,1-.43.88s-.05.09-.07.14l-.28.57s0,.14,0,.18c.14.26,0,.43-.18.59s-.2.23,0,.41c.05,0,.1.13.09.16-.16.24,0,.36.16.5-.18.13-.17.13-.13.36a.41.41,0,0,1,0,.22c-.09.27,0,.36.24.43s.31.06.45.11a.55.55,0,0,1,.38.56,4.11,4.11,0,0,1-.07.47c-.42.09-.93,0-1.19.56a2.44,2.44,0,0,0-.25-.42,2.49,2.49,0,0,0-.68-.54c-.28-.12-.35-.46-.65-.52a1,1,0,0,1,0-.76,3.74,3.74,0,0,0,.41-1.42A8.19,8.19,0,0,0,416,35c0-.08,0-.18-.08-.22s-.34-.22-.48-.36a1.3,1.3,0,0,0-1.11-.34,2.59,2.59,0,0,0-1.71.62.73.73,0,0,0-.1.93l-.06.11a.77.77,0,0,0-.12.61c0,.06,0,.16-.05.22s-.17.19-.24.3-.09.26.08.32a.27.27,0,0,1,.19.24c0,.15.17.28,0,.45,0,0,0,.06,0,.09a.41.41,0,0,1,0,.22c-.17.33-.08.5.29.54a.41.41,0,0,1,.26.11.59.59,0,0,1,0,.89l-.06.06A1.73,1.73,0,0,0,412.3,41s-.1.13-.14.12a.6.6,0,0,1-.26-.16c-.24-.27-.47-.55-.7-.83a1.47,1.47,0,0,1-.44-1.13,1.94,1.94,0,0,0-.25-1.35c-.22-.34-.5-.66-.75-1-.09-.11-.16-.24-.24-.36s-.17-.35-.31-.43a.32.32,0,0,1-.18-.25,1.44,1.44,0,0,1,.15-1.11,1.9,1.9,0,0,0,.12-.36,4,4,0,0,1,.21-.47c0-.06.09-.1.11-.16a2,2,0,0,0-.16-2,1.81,1.81,0,0,0-2.31-.52c-.25.13-.55.25-.63.58a2.58,2.58,0,0,1,0,.29c-.1.3-.21.58-.32.88a.22.22,0,0,0,0,.14.49.49,0,0,1,0,.47,1.8,1.8,0,0,0,0,.4c0,.21,0,.43,0,.61l-.61-.38h0a.82.82,0,0,1-.22,0s-.07-.06-.08-.11,0-.08.07-.08a.2.2,0,0,1,.12.06,1.14,1.14,0,0,1,.11.11h0l-.09-.2s0,0,0,0l.3.14c-.12-.3-.42-.09-.56-.26a.52.52,0,0,0,.12-.13,1.47,1.47,0,0,0-.46.06.28.28,0,0,1-.33,0c1.23-4.94,2.44-9.86,3.67-14.79a8.73,8.73,0,0,0,2.43.59,7.55,7.55,0,0,1,1.8.57,8.17,8.17,0,0,0,1.29.44,17.54,17.54,0,0,0,3.15.42,8,8,0,0,1,2.31.43,7.52,7.52,0,0,0,2.11.47,3.51,3.51,0,0,1,1.47.43l1.33.74a1.94,1.94,0,0,0,1.2.29,3.84,3.84,0,0,1,1.68.18c.28.09.55.2.89.33.33-1,.66-2,1-3,0-.14.06-.29.1-.44a2.2,2.2,0,0,0-.18-1.74c-.15-.28-.05-.43.27-.47l.3,0c.24-.05.35-.16.34-.41a2.28,2.28,0,0,0-.1-.52,1,1,0,0,1,.16-1c.3-.35.6-.71.88-1.08a.9.9,0,0,0,0-1.3l0-.05a7.28,7.28,0,0,0-1-1.11,12.36,12.36,0,0,0-3.06-1.48c-1-.4-2.09-.73-3.14-1.09-1.32-.46-2.64-.93-4-1.36-.54-.18-1.12-.23-1.65-.42-.76-.28-1.5-.61-2.23-1-.56-.27-1.09-.6-1.64-.9s-1.28-.74-1.95-1.06a9.46,9.46,0,0,0-1.3-.44l0,.16c-.25,1.32-.48,2.65-.74,4-.29,1.48-.59,3-.91,4.44s-.7,3.05-1,4.58c-.26,1.22-.46,2.45-.73,3.66-.36,1.57-.76,3.13-1.16,4.69-.46,1.77-1,3.53-1.42,5.29-.17.63-.33,1.27-.5,1.9a.69.69,0,0,1-.18.24c-.25.2-.63.27-.66.69,0,.12,0,.24,0,.36s-.06.4-.1.61a.69.69,0,0,1-.45-.49,1.31,1.31,0,0,1,.21-1.19,3,3,0,0,0,.28-.53,1.88,1.88,0,0,0-.57-2,2.17,2.17,0,0,0-1.37-.22c-.65.06-.9.51-1.13,1a.35.35,0,0,0,0,.39,2.94,2.94,0,0,0-.36.33c-.06.07-.13.22-.09.27a4,4,0,0,1,.18.36c.11.2.06.28-.08.39a.5.5,0,0,1-.08.26c-.09.11-.1.23,0,.31a2,2,0,0,0,.54.28.37.37,0,0,1,.32.38.87.87,0,0,1-.27.82,2.15,2.15,0,0,0-.75,1.14c-.08.28-.19.56-.3.88a1.36,1.36,0,0,0-.07-.18c-.17-.59-.33-1.18-.53-1.76a1.42,1.42,0,0,0-.57-.81c-.17-.12-.36-.19-.54-.3s-.21-.16-.21-.25c0-.25-.15-.32-.36-.34s-.22-.14-.24-.29,0-.22.15-.25.08-.07.09-.11c0-.27.28-.36.41-.55s.17-.13.19-.21A2.35,2.35,0,0,0,397.2,31s0,0-.07-.05a3.29,3.29,0,0,1-.49-.26,1,1,0,0,0-1.27-.1c-.32.17-.61.43-1,.37a.07.07,0,0,0-.06,0,.48.48,0,0,0-.34.45c0,.2.13.25.26.32l.06,0,0,0,.06.3a.23.23,0,0,1,0,.12l-.34.39a.71.71,0,0,1,.11.44s.05.09.08.12.1.07.15.11l-.26.16.18.12c-.18.32-.15.39.15.49l.34.11a.45.45,0,0,1,.21.15c.2.26.15.42-.19.73-.16.15-.3.31-.46.46a.32.32,0,0,1-.18.11c-.29,0-.57,0-.86,0-.23,1.46-.45,2.93-.68,4.39h0c0,.25-.08.5-.11.75h.07l-.07,1.53L391.09,45l-6.45-5.83c-.41-.68-.82-1.36-1.24-2l-1.21-2a.28.28,0,0,1,0-.33,8.34,8.34,0,0,0,.74-1.71,1,1,0,0,0,0-.76,4.13,4.13,0,0,0-.52-1c-.29-.39-.54-.85-1.12-.87l-.49,0c0-.08.09-.1.09-.18a2.56,2.56,0,0,1,.19-.77l.06-.18c0-.26.16-.36.38-.43a3.18,3.18,0,0,1,2,.13l.21.06c.21.08,4.6,2.25,5.52,2.61a4.54,4.54,0,0,0,1.95.43,1,1,0,0,0,1-.64,25.13,25.13,0,0,0,1.63-6.32c0-.1,0-.14-.11-.12a3.4,3.4,0,0,1-.78,0,6.28,6.28,0,0,1-2.64-.86c-1.09-.59-2.07-1.33-3.09-2a9.44,9.44,0,0,0-1.93-1.1,2.15,2.15,0,0,0-1.67-.09.26.26,0,0,1-.21,0c-.15-.08-.2,0-.24.13-.71,2.48-1.43,5-2.15,7.43-.05.18-.17.34-.2.5s-.11.59-.19.88c0,.13-.09.26-.13.38a.49.49,0,0,1,0,.12,3,3,0,0,0-.42.05c-.09,0-.21,0-.27-.12l-.09-.07,0,0h0a.27.27,0,0,0-.07-.08.39.39,0,0,0-.5-.08c-.24.15-.48.38-.42.59a.53.53,0,0,0,.14.28.41.41,0,0,1,.15.2c-.32-.05-.46.19-.61.39s0,.47.18.69c-.38,0-.5.31-.58.57s.12.41.33.54a.57.57,0,0,0-.3.91.41.41,0,0,1,0,.16,1,1,0,0,0,.3.66c.25.21.51.4.77.6s.57.31.7.67c.32.88.68,1.75,1,2.63l1.46,2.29-1.77,6h-2.63l-.92-9.19-2.75-.49v6.62l-4.67.76-1.24-5.91V34.35a2.89,2.89,0,0,1-2.37.34v2l-7.52.89v5.49l-7.9-3.89,1-3.33a1.28,1.28,0,0,0,.16-.28c.21-.5.32-1,.52-1.54a5.7,5.7,0,0,1,.67-1.41,1.65,1.65,0,0,1,.92-.56,8.17,8.17,0,0,1,1.49-.09c.18,0,.36,0,.54,0,1-.1,1.4-.41,1.56-1.09a1.78,1.78,0,0,0-.82-2.2c-.28-.18-.58-.35-1-.58a3.73,3.73,0,0,1-.16,3.27c.08-.55.19-1.1.25-1.66a2.09,2.09,0,0,0-1.32-2.28c-1-.51-2.1-1-3.11-1.58a17.17,17.17,0,0,1-4-3.26,3.54,3.54,0,0,1-.56-1c-.17-.43-.28-.9-.8-1a1.3,1.3,0,0,0-1.42.54,11.38,11.38,0,0,0-1.85,3.72,13.37,13.37,0,0,0-.7,6.33,3.6,3.6,0,0,0,.34,1,.74.74,0,0,0,1.11.38c2.17-1.18,4.53-1.17,6.89-1.18.69,0,.85.2.63.84a18.46,18.46,0,0,0-.75,1.73c-.11.53-.58.94-.66,1.48h-2.63l-1.92,2.2h-3.09l-.4,5.49h-1.67L338.06,33h0l-6-.66v5.58h-11.7l2.33-2.83.45.25c.08,0,.16.09.23,0,.23-.32.48-.63.68-1,.67-1.12,1.25-2.3,2-3.37a.91.91,0,0,1,.46-.36c.23-.08.45-.2.68-.3s.38-.15.56-.24a1.46,1.46,0,0,0,.46-.25c.3-.28.57-.59.85-.89a.22.22,0,0,0,0-.14l-.84-1.56c-.25,0-.25,0-.27-.2a.88.88,0,0,0,0-.15c-.14-.43-.29-.85-.42-1.28a1.42,1.42,0,0,0-.39-.67L326,23.89c-.27-.24-.55-.47-.83-.7a.19.19,0,0,0-.14-.05.2.2,0,0,0-.05.14,2,2,0,0,0,0,.23c.14.81.27,1.61.41,2.42a.61.61,0,0,1,0,.19c-.11.78-.23,1.56-.34,2.34a1,1,0,0,0,.13.73,1.11,1.11,0,0,1,.07.2,3.2,3.2,0,0,1-.52,0c-.31,0-.39,0-.55.24s-.45.8-.65,1.2c-.1.17-.19.35-.28.53l-.18,0,.24-.51,0-.08c.24-.62.48-1.24.73-1.85,0-.1,0-.17-.07-.22l-.61-.37a1.65,1.65,0,0,1-.17-.15h.12a2.89,2.89,0,0,0,1.43-.07.24.24,0,0,0,.2-.27c0-.34,0-.69,0-1-.13-1.41-.26-2.81-.38-4.21a1,1,0,0,0-.27-.58,3.16,3.16,0,0,1-.39-.43,2.94,2.94,0,0,0-.68-.81c-.06,0-.07-.11-.1-.15a3.12,3.12,0,0,0,.55,0,1.19,1.19,0,0,0,.4-.21,1,1,0,0,0,.45-.64.86.86,0,0,1,.11-.21,1.8,1.8,0,0,1,.12.25c.12.4.25.8.36,1.2a.46.46,0,0,0,.26.34l.26.13a5.93,5.93,0,0,0,1.51.35.59.59,0,0,0,.48-.14c.19-.2.37-.42.55-.63a.42.42,0,0,0,0-.58,38,38,0,0,0-2.3-3.05s-.06-.07-.06-.06-.11-.05-.14-.08a1.29,1.29,0,0,1-.09-.16.73.73,0,0,0-.88-.42,2,2,0,0,0-.37.11c-.39.16-.77.34-1.16.51a18.36,18.36,0,0,0-2.8,1.65.93.93,0,0,0-.45,1c.07.54.13,1.07.19,1.61.08.73.16,1.46.23,2.19.08.88.14,1.77.21,2.66,0,.21.05.42.05.63a.39.39,0,0,1-.08.25c-.69.87-1.4,1.72-2.09,2.6-.23.29-.43.6-.64.91l-.47-.05-6,4.66-3.25-5.68-1.62-.18c-.88-.38-1.76-.77-2.65-1.11-.47-.18-1-.24-1.45-.39-.09,0-.17-.19-.2-.3-.62-2.23-1.35-4.43-1.82-6.69-.64-3.09-1.1-6.21-1.58-9.33a4.19,4.19,0,0,1,0-2.36c.44-.83,0-1-.44-1.42-.45.41-1.05.72-.39,1.41.09.09.05.34,0,.51-.2,1.76-.35,3.52-.62,5.27s-.64,3.22-1,4.83c-.19.95-.33,1.91-.56,2.85-.36,1.42-.78,2.83-1.16,4.25-.1.32-.18.66-.25,1a5.8,5.8,0,0,0-.76.14c-.92.32-1.84.65-2.74,1a4.78,4.78,0,0,0-.64.32l-2.19.24-3.25,5.68-6-4.66-.45.05c-.21-.31-.43-.62-.66-.91-.68-.88-1.4-1.73-2.09-2.6a.46.46,0,0,1-.08-.25c0-.21,0-.42,0-.63.07-.89.13-1.78.21-2.66.07-.73.16-1.46.24-2.19.06-.54.11-1.07.18-1.61a.91.91,0,0,0-.45-1,17.89,17.89,0,0,0-2.8-1.65c-.38-.17-.77-.35-1.16-.51a2,2,0,0,0-.37-.11.73.73,0,0,0-.88.42,1.29,1.29,0,0,1-.09.16s0,.17-.13.08,0,0-.07.06a38,38,0,0,0-2.3,3.05.43.43,0,0,0,0,.58c.18.21.36.43.56.63a.56.56,0,0,0,.47.14,5.93,5.93,0,0,0,1.51-.35l.27-.13A.51.51,0,0,0,271,21c.1-.4.23-.8.35-1.2l.12-.25c.05.09.11.15.11.21a1,1,0,0,0,.45.64,1.19,1.19,0,0,0,.4.21,3.12,3.12,0,0,0,.55,0s0,.12-.09.15a3,3,0,0,0-.69.81,2.62,2.62,0,0,1-.39.43.91.91,0,0,0-.26.58c-.13,1.4-.26,2.8-.38,4.21,0,.34,0,.69,0,1a.24.24,0,0,0,.2.27,2.92,2.92,0,0,0,1.44.07h.11a1.65,1.65,0,0,1-.17.15l-.61.37c-.09.05-.1.12-.07.22.25.61.49,1.23.73,1.85l0,.08c.08.17.16.34.25.51l-.19,0-.27-.53c-.21-.4-.44-.8-.66-1.2s-.24-.28-.55-.24a3.2,3.2,0,0,1-.52,0,.64.64,0,0,1,.08-.2,1.16,1.16,0,0,0,.13-.73c-.12-.78-.24-1.56-.35-2.34a.61.61,0,0,1,0-.19c.14-.81.28-1.61.41-2.42a.62.62,0,0,0,0-.23.2.2,0,0,0-.05-.14.22.22,0,0,0-.14.05c-.28.23-.56.46-.83.7L269,25a1.51,1.51,0,0,0-.39.67c-.12.43-.28.85-.42,1.28a.42.42,0,0,0,0,.15c0,.23,0,.23-.28.2-.28.52-.56,1-.83,1.56a.14.14,0,0,0,0,.14c.27.3.54.61.84.89a1.46,1.46,0,0,0,.46.25c.19.09.38.16.57.24s.44.22.67.3a.91.91,0,0,1,.46.36c.77,1.07,1.35,2.25,2,3.37.21.34.45.65.68,1,.07.1.15.06.23,0l.45-.25,2.33,2.83H264.12V32.35l-6,.66h0l-1.58,10.08h-1.67l-.4-5.49H251.4l-1.92-2.2h-2.63c-.08-.54-.55-.95-.66-1.48a18.46,18.46,0,0,0-.75-1.73c-.22-.64-.05-.85.63-.84,2.36,0,4.73,0,6.89,1.18a.74.74,0,0,0,1.11-.38,3.6,3.6,0,0,0,.34-1,13.12,13.12,0,0,0-.7-6.33,11.56,11.56,0,0,0-1.84-3.72,1.32,1.32,0,0,0-1.43-.54c-.51.13-.63.6-.8,1a3.12,3.12,0,0,1-.56,1,17.17,17.17,0,0,1-4,3.26c-1,.57-2.06,1.07-3.11,1.58a2.1,2.1,0,0,0-1.32,2.28c.06.56.17,1.11.26,1.66a3.67,3.67,0,0,1-.16-3.27l-1,.58a1.78,1.78,0,0,0-.82,2.2c.16.68.6,1,1.56,1.09.18,0,.36,0,.54,0a8.28,8.28,0,0,1,1.5.09,1.69,1.69,0,0,1,.92.56,6.52,6.52,0,0,1,.67,1.41c.19.51.3,1,.51,1.54a2.69,2.69,0,0,0,.16.29l1,3.32-7.91,3.89V37.6l-7.52-.89v-2a2.89,2.89,0,0,1-2.37-.34v4.72L226.72,45l-4.67-.76V37.6l-2.75.49-.92,9.19h-2.62l-1.78-6L215.44,39c.33-.88.69-1.75,1-2.63.13-.36.44-.48.7-.67s.52-.39.77-.6a1,1,0,0,0,.3-.66.41.41,0,0,1,0-.16.57.57,0,0,0-.3-.91c.21-.13.42-.29.34-.54s-.2-.55-.59-.57c.16-.22.38-.42.18-.69s-.29-.44-.61-.39a.41.41,0,0,1,.15-.2.53.53,0,0,0,.14-.28c.06-.21-.18-.44-.42-.59a.39.39,0,0,0-.5.08l-.07.08h0l0,0-.09.07c-.06.16-.17.14-.27.12a3,3,0,0,0-.42-.05v-.12l-.12-.38a8.63,8.63,0,0,1-.2-.88c0-.16-.15-.32-.2-.5-.71-2.48-1.44-4.95-2.15-7.43,0-.14-.09-.21-.24-.13a.26.26,0,0,1-.21,0,2.15,2.15,0,0,0-1.67.09,9.71,9.71,0,0,0-1.93,1.1c-1,.69-2,1.43-3.09,2a6.28,6.28,0,0,1-2.64.86,3.4,3.4,0,0,1-.78,0c-.13,0-.12,0-.11.12A25.56,25.56,0,0,0,204,31.49a1,1,0,0,0,1,.64A4.51,4.51,0,0,0,207,31.7c.92-.36,5.31-2.53,5.52-2.61l.21-.06a3.21,3.21,0,0,1,2-.13c.21.07.38.17.37.43l.06.18a2.56,2.56,0,0,1,.19.77c0,.08.1.1.09.18l-.49,0c-.58,0-.83.48-1.12.87a4.13,4.13,0,0,0-.52,1,1.1,1.1,0,0,0,0,.76,8.34,8.34,0,0,0,.74,1.71.28.28,0,0,1,0,.33l-1.21,2c-.42.68-.83,1.36-1.24,2L205.11,45l-1.31-2.7-.07-1.53h.07c-.26-1.71-.52-3.43-.79-5.14-.28,0-.57,0-.86,0a.32.32,0,0,1-.18-.11l-.46-.46c-.34-.31-.39-.47-.19-.73a.45.45,0,0,1,.21-.15l.35-.11c.29-.1.32-.17.14-.49l.18-.12-.26-.16a1,1,0,0,0,.15-.11s.08-.08.08-.12c0-.28,0-.28.11-.44-.11-.13-.23-.26-.33-.39a.13.13,0,0,1,0-.12,1.59,1.59,0,0,1,.06-.3l-.06,0,.06,0c.13-.07.28-.12.26-.32a.48.48,0,0,0-.34-.45.07.07,0,0,0-.06,0c-.41.06-.7-.2-1-.37a1,1,0,0,0-1.27.1,3.29,3.29,0,0,1-.49.26S199,31,199,31a2.35,2.35,0,0,0-.36,1.82c0,.08.13.14.19.21s.4.28.42.55c0,0,.05.11.08.11s.17.12.15.25,0,.29-.24.29-.34.09-.35.34c0,.09-.13.19-.22.25s-.37.18-.54.3a1.51,1.51,0,0,0-.57.81c-.19.58-.35,1.17-.53,1.76,0,0,0,.09-.07.18-.11-.32-.22-.6-.3-.88a2.15,2.15,0,0,0-.75-1.14.87.87,0,0,1-.27-.82.37.37,0,0,1,.32-.38,2,2,0,0,0,.54-.28c.12-.08.11-.2,0-.31a.61.61,0,0,1-.08-.26c-.13-.11-.19-.19-.08-.39a4,4,0,0,1,.18-.36s0-.2-.08-.27a3.92,3.92,0,0,0-.36-.33.36.36,0,0,0,0-.39c-.24-.5-.49-.95-1.14-1a2.17,2.17,0,0,0-1.37.22,1.86,1.86,0,0,0-.56,2,2.4,2.4,0,0,0,.27.53,1.35,1.35,0,0,1,.22,1.19.72.72,0,0,1-.46.49c0-.21-.07-.41-.1-.61s0-.24,0-.36c0-.42-.41-.49-.66-.69a.56.56,0,0,1-.17-.24c-.18-.63-.34-1.27-.51-1.9-.47-1.76-1-3.52-1.41-5.29-.41-1.56-.81-3.12-1.16-4.69-.28-1.21-.48-2.44-.74-3.66-.33-1.53-.7-3.05-1-4.58s-.61-3-.9-4.44c-.26-1.32-.5-2.65-.75-4l0-.16a9.46,9.46,0,0,0-1.3.44c-.66.32-1.3.7-1.95,1.06s-1.07.63-1.63.9c-.74.35-1.48.68-2.24,1-.53.19-1.11.24-1.64.42-1.33.43-2.65.9-4,1.36-1,.36-2.1.69-3.14,1.09a12.36,12.36,0,0,0-3.06,1.48,6.76,6.76,0,0,0-1,1.11.1.1,0,0,0,0,.05.9.9,0,0,0,0,1.3c.28.37.58.73.88,1.08a1,1,0,0,1,.16,1,2.28,2.28,0,0,0-.1.52c0,.25.1.36.34.41l.3,0c.32,0,.42.19.28.47a2.17,2.17,0,0,0-.19,1.74c0,.15.06.3.11.44.32,1,.65,2,1,3,.34-.13.61-.24.89-.33a3.84,3.84,0,0,1,1.68-.18,2,2,0,0,0,1.21-.29l1.32-.74a3.52,3.52,0,0,1,1.48-.43,7.53,7.53,0,0,0,2.1-.47,8,8,0,0,1,2.32-.43,17.43,17.43,0,0,0,3.14-.42,8.65,8.65,0,0,0,1.3-.44,7.62,7.62,0,0,1,1.79-.57,8.73,8.73,0,0,0,2.43-.59q1.85,7.4,3.67,14.79a.27.27,0,0,1-.32,0,1.58,1.58,0,0,0-.47-.06.52.52,0,0,0,.12.13c-.14.17-.44,0-.56.26l.3-.14,0,0-.1.2h0l.11-.11a.23.23,0,0,1,.12-.06s.08.06.07.08,0,.11-.08.11a.86.86,0,0,1-.22,0h0l-.61.38c0-.18,0-.4,0-.61a1.35,1.35,0,0,0,0-.4.52.52,0,0,1,0-.47.22.22,0,0,0,0-.14c-.11-.3-.22-.58-.32-.88,0-.09,0-.19,0-.29-.08-.33-.38-.45-.63-.58a1.8,1.8,0,0,0-2.3.52,1.94,1.94,0,0,0-.17,2c0,.06.09.1.12.16s.14.31.2.47a3,3,0,0,0,.12.36,1.44,1.44,0,0,1,.15,1.11.32.32,0,0,1-.18.25c-.14.08-.21.28-.3.43s-.16.25-.25.36c-.25.33-.52.65-.75,1a1.94,1.94,0,0,0-.25,1.35,1.44,1.44,0,0,1-.44,1.13c-.22.28-.46.56-.7.83a.6.6,0,0,1-.26.16s-.14-.08-.14-.12a1.73,1.73,0,0,0-.59-1.27l-.05-.06a.59.59,0,0,1,0-.89.41.41,0,0,1,.27-.11c.36,0,.45-.21.28-.54a.41.41,0,0,1,0-.22s.06-.08.05-.09c-.14-.17,0-.3,0-.45a.29.29,0,0,1,.19-.24c.17-.06.2-.17.09-.32s-.17-.2-.24-.3a.31.31,0,0,1-.06-.22.77.77,0,0,0-.12-.61s0-.07,0-.11a.73.73,0,0,0-.11-.93,2.57,2.57,0,0,0-1.7-.62,1.31,1.31,0,0,0-1.12.34c-.14.14-.33.23-.48.36a.36.36,0,0,0-.08.22,8.19,8.19,0,0,0-.06,1.3,3.74,3.74,0,0,0,.41,1.42,1,1,0,0,1,0,.76c-.3.06-.36.4-.65.52a2.31,2.31,0,0,0-.67.54,1.92,1.92,0,0,0-.26.42c-.26-.59-.77-.47-1.19-.56,0-.16-.06-.32-.07-.47a.56.56,0,0,1,.38-.56c.15,0,.3-.07.45-.11s.33-.16.24-.43a.55.55,0,0,1,0-.22c0-.23,0-.23-.13-.36.13-.14.33-.26.17-.5,0,0,0-.12.08-.16.22-.18.23-.23,0-.41s-.33-.33-.18-.59a.24.24,0,0,0,0-.18l-.28-.57s0-.11-.07-.14a1.37,1.37,0,0,1-.43-.88,1,1,0,0,0-1.2-.67l.11.09-.23.13a.25.25,0,0,1,.08,0l-.14.14.14,0,0,0-.17.09,0,.06c.17-.13.31-.07.44.09l-.59.05a1.17,1.17,0,0,0-.91.49c-.09.15-.29.22-.43.34s-.27.25-.4.37l0,.05.09,0c-.08.25-.15.48-.23.71a1.35,1.35,0,0,0,.13,1.06,2,2,0,0,1,.3,1.11s.1.14.17.17c.26.08.28.15.25.42s-.34.43-.56.6a1.5,1.5,0,0,0-.24.18c-.32.41-.61.84-.94,1.25a2.58,2.58,0,0,0-.57,1.1,2.83,2.83,0,0,1-.49-1,4.19,4.19,0,0,0-.32-.59c0-.05-.09-.09-.09-.14a1.26,1.26,0,0,0-.42-.73,1.87,1.87,0,0,0-.52-.32,4.48,4.48,0,0,0-.58-.14,3.13,3.13,0,0,1,.33-.66.71.71,0,0,1,.69-.19c.25,0,.33-.11.23-.35a.29.29,0,0,1,0-.33c0-.05-.05-.19-.09-.32s.24-.13.18-.33c0,0,.1-.06.15-.07.23,0,.27-.12.18-.34a.14.14,0,0,1,0-.06,1.65,1.65,0,0,1-.14-.68,2.5,2.5,0,0,0-.23-1c0-.06-.06-.11-.09-.19l.11-.06a2.1,2.1,0,0,0-2.7-.89.41.41,0,0,0-.11.07,6.33,6.33,0,0,0-.64.83,2,2,0,0,0-.06,1.89,2.4,2.4,0,0,1,.3,1.15c0,.17-.06.35-.09.58l-.18-.19-.13-.16c.15-.14.12-.29,0-.44a2.4,2.4,0,0,0-.35-.47c-.07-.07-.24,0-.37,0h0c.25.08.26.1.23.42l-.23-.42h0a.85.85,0,0,0-1.23.06,2.65,2.65,0,0,1-.6.44,1,1,0,0,0-.51.65.57.57,0,0,1-.33.42.24.24,0,0,0-.13.34.29.29,0,0,1-.1.37.45.45,0,0,0-.12.29,7.43,7.43,0,0,0-.09.81,1.29,1.29,0,0,0,.08.39.54.54,0,0,1-.05.55c-.14.22-.26.46-.4.7l-.78-.4c0-.32,0-.58-.06-.85a4.2,4.2,0,0,0,.47.08c.39,0,.61-.23.58-.66a.81.81,0,0,0-.06-.31c-.06-.16-.12-.31.09-.43l-.29-.23c0-.19.35-.33.11-.56a.92.92,0,0,0,.28-.2c0-.07,0-.2,0-.32a8.75,8.75,0,0,0,1.76-2.84l.68-1.49a.26.26,0,0,1,.3-.16,1,1,0,0,0,.4-.1c.17-.08.34-.18.51-.28a1.72,1.72,0,0,0,.33-.22c.21-.2.19-.28-.09-.36,0-.24-.08-.39-.38-.51l-.37-.16c-.19-.09-.42.06-.56.33a5.4,5.4,0,0,1-.52.82c-.45.57-.92,1.12-1.39,1.66a8,8,0,0,1-.66.64,4.46,4.46,0,0,0-.9,1.08.33.33,0,0,1-.12.11.7.7,0,0,0-.23-.73c-.12-.11-.16-.31-.28-.44l.12.22c-.19-.18-.31-.47-.69-.37h.18c-.05,0-.08.05-.1.08l.21,0c-.13.05-.23.11-.34.14a.3.3,0,0,1-.18,0l-.34-.08-.26,0h-.18s-.1,0-.12,0c-.25-.21-.49,0-.73,0-.09,0-.19.11-.27.19s-.28.31-.42.47-.06.06-.08.06c-.29,0-.32.24-.48.35l0,0a2.6,2.6,0,0,0,.22-.19l0,.16.09,0,0,0-.49.58c-.06-.25-.09-.47-.15-.68a.88.88,0,0,0-.18-.29,1.07,1.07,0,0,0-.71-.48l-1-.1c-.23,0-.46-.11-.64.13h-.06c-.05-.2-.1-.4-.14-.6s0-.16,0-.23a1.48,1.48,0,0,1,.29-1.1,1.21,1.21,0,0,0-.07-1.28,1,1,0,0,1-.13-.77c.51-.14,1-.27,1.54-.42a1.06,1.06,0,0,0,.2-.12l.25-.13.41-.24c.25-.14.51-.26.74-.42a3,3,0,0,0,.45-.42,3.4,3.4,0,0,0,.32-.34A13.39,13.39,0,0,0,161.68,27a1.23,1.23,0,0,1,.47-.59.48.48,0,0,0,.15-.27c0-.17.06-.34.09-.51s.07-.27.11-.4.1-.24-.09-.29c-.06-.34-.39-.25-.59-.35s-.23,0-.33.1a1.25,1.25,0,0,0-.24.27.41.41,0,0,0-.05.21c0,.16.08.31.12.46a.57.57,0,0,1-.13.6c-.47.47-.95.93-1.43,1.38-.18.17-.4.31-.59.47a1.66,1.66,0,0,0-.16.24l-1.2.46a2.3,2.3,0,0,1-1.17.27c0-.16,0-.3,0-.43s0-.05,0-.06a1.88,1.88,0,0,0,0-1.05c0-.14-.17-.26-.21-.38s0-.36,0-.56c.36-.12.07-.38.07-.6s-.23-.41-.34-.62-.21-.17-.34-.23-.13,0-.23.07a1.11,1.11,0,0,0-1.13-.11.51.51,0,0,1-.27,0,1,1,0,0,0-.94.41.83.83,0,0,1-.28.21c-.23.09-.4.21-.4.49,0,.08-.1.16-.13.21a.56.56,0,0,1,.07.19c0,.2,0,.39,0,.59s-.13.09-.25.09l.16.18h-.24c.26.12.3.28.18.49l-.32-.28,0,0,.34.37-.1.19.13,0c.07,0,.17.05.19.09s0,.15-.06.21a.26.26,0,0,0,.05.35l.37.27.11-.08c0,.06,0,.1,0,.15l.21-.18a1.17,1.17,0,0,1-.43.53,3,3,0,0,0-.5.36,1.27,1.27,0,0,0-.31,1c0,.21,0,.42-.07.63a3.77,3.77,0,0,0,0,.47c.1,1,.22,2,.32,3a5.61,5.61,0,0,1,0,.58c-.23.08-.43.14-.63.22a1.08,1.08,0,0,0-.69.72c-.1.34-.22.69-.3,1a1.63,1.63,0,0,0,.42,1.45.42.42,0,0,1,.12.24,1.21,1.21,0,0,0,.24.6,2.94,2.94,0,0,1,.24.62l-.08,0a1.79,1.79,0,0,1-.27-.28,1.49,1.49,0,0,0-1.93-.44,1,1,0,0,1-.33.14,3.77,3.77,0,0,0-1.23.67,1.81,1.81,0,0,0-.35.53c.42,2.69.83,5.38,1.25,8.07l-3,4.46-4.18-1.13V47l-4.27.8V55h-5.42V49.27H128v1.88h-4.63V49.27h-5v3.49h-1.61V55L114,54.38v-4l-1.45.16v5.32h-4l-1-4.19-4.2-.49L97.24,52l-1.81,2.26-5.64-.16-.87-2.48-4.13,1.18-.65,3.07H78.65L74.46,54.7,64.3,55,59,57.6l-5.65-2.11L40.75,57.6l.11-.74L0,61.34V95.61H595.74V61.34h.46ZM379.22,35.47s-.23,0-.2-.12,0-.32.17-.36a.2.2,0,0,1,.23.16C379.35,35.26,379.34,35.42,379.22,35.47Zm-22.36-6a1.71,1.71,0,0,1-.33,1.81C356.63,30.7,356.74,30.09,356.86,29.46Zm-.56-.24a2.86,2.86,0,0,1-.48,2.39Zm-117,.24c.11.63.22,1.24.33,1.81A1.67,1.67,0,0,1,239.35,29.46Zm.55-.24.48,2.39A2.86,2.86,0,0,1,239.9,29.22ZM217,35c.17,0,.14.23.17.36s-.16.14-.2.12-.13-.21-.2-.32A.2.2,0,0,1,217,35Zm-25.53-1.25.24,0a1.13,1.13,0,0,1-.07.15l.23.24-.45,0C191.45,34,191.46,33.86,191.48,33.74Zm-2.15,1.84a.26.26,0,0,1,.33-.22c-.29.49,0,.87.23,1.28a4.77,4.77,0,0,1-.51-.13s-.12-.09-.11-.14A6.83,6.83,0,0,1,189.33,35.58Zm-31.06,4.21a.25.25,0,0,1,.18-.15c.38,0,.51-.17.62-.46,0-.11.11-.22.17-.35-.1-.17-.1-.17.09-.3-.3-.31.16-.25.2-.45a1.5,1.5,0,0,0,.23.4c.24.27.5.51.76.76.06.07.13.18.2.18s.15.09.17.18a.8.8,0,0,1,0,.21c-.08.11-.17.18-.17.24a.77.77,0,0,1-.38.7l-1.14.52c-.25-.26-.49-.55-.78-.81S158.14,40.17,158.27,39.79Zm93.2-9.47A20.31,20.31,0,0,1,250,25C251.21,25.38,252.08,28.4,251.47,30.32Zm-7-.87a2.28,2.28,0,0,1,.63-2.87c.43-.36.89-.66,1.34-1l3-2.28a10.66,10.66,0,0,0,.55,4.13c.45,1.34,1,2.64,1.54,4l-.73-.2a14.43,14.43,0,0,0-4.14-.42A1.92,1.92,0,0,1,244.45,29.45Zm55-1.83.67-1.69c.49.73.92,1.38,1.37,2Zm-.72-.32V24.57l1,1.12Zm2.11-2.71.56,1.63-.16.06C301.07,25.76,300.14,25.49,300.84,24.59Zm-.37-.74-.36,1-.68-1Zm-.17-.78h-1.14l.65-.58Zm-1.57-2.48c.27.35.43.57.64.83l-.64,1.29Zm-.71.23c.1.6.19,1.14.31,1.79C297.74,22,297.47,21.54,298,20.82Zm-1.09,4.42c-.14-.4-.24-.71-.36-1.07l1.43-.36Zm1-.52v2.51C297.61,26.27,296.9,25.51,297.93,24.72Zm-.64-2.33.62.74-1.35.35Zm-1.11,2.23c.5,1,.49,1-.62,1.88C295.79,25.81,296,25.24,296.18,24.62Zm.39,1.67,1,1.32-2.44.49ZM346.2,25a20.31,20.31,0,0,1-1.47,5.28C344.12,28.4,345,25.38,346.2,25Zm3.36,5.75a14.37,14.37,0,0,0-4.13.42l-.74.2c.52-1.34,1.09-2.64,1.54-4a10.87,10.87,0,0,0,.56-4.13l3,2.28c.45.34.92.64,1.34,1a2.28,2.28,0,0,1,.63,2.87A1.91,1.91,0,0,1,349.56,30.79Zm85.75,8.81c0-.09,0-.18.17-.18s.14-.11.2-.18c.26-.25.52-.49.77-.76a2.36,2.36,0,0,0,.23-.4c0,.2.49.14.19.45.2.13.2.13.09.3a2.76,2.76,0,0,1,.17.35c.11.29.24.5.62.46a.26.26,0,0,1,.19.15c.12.38.09.4-.2.67s-.53.55-.77.81l-1.15-.52a.77.77,0,0,1-.38-.7c0-.06-.09-.13-.17-.24S435.29,39.69,435.31,39.6Zm-28.77-4.24a.25.25,0,0,1,.33.22,5.16,5.16,0,0,1,.07.79.19.19,0,0,1-.12.14,4.23,4.23,0,0,1-.51.13C406.57,36.23,406.83,35.85,406.54,35.36Zm-2.06-1.65.24,0c0,.12,0,.23,0,.38l-.44,0,.22-.24Z"/></g></g></svg>