<svg xmlns="http://www.w3.org/2000/svg" xmlns:xlink="http://www.w3.org/1999/xlink" viewBox="0 0 36.96 36.96"><defs><style>.cls-1,.cls-3{fill:none;stroke-miterlimit:10;}.cls-1{stroke-width:0.75px;stroke:url(#linear-gradient);}.cls-1,.cls-2{fill-rule:evenodd;}.cls-2{fill:url(#linear-gradient-2);}.cls-3{stroke-width:2px;stroke:url(#linear-gradient-3);}</style><linearGradient id="linear-gradient" y1="18.48" x2="36.96" y2="18.48" gradientUnits="userSpaceOnUse"><stop offset="0" stop-color="#f39200"/><stop offset="1" stop-color="#e6332a"/></linearGradient><linearGradient id="linear-gradient-2" x1="18.48" y1="33.85" x2="18.48" y2="3.11" gradientUnits="userSpaceOnUse"><stop offset="0" stop-color="#ededed"/><stop offset="1" stop-color="#c6c6c6"/></linearGradient><linearGradient id="linear-gradient-3" x1="18.48" y1="35.15" x2="18.48" y2="1.81" xlink:href="#linear-gradient"/></defs><title>Recurso 12</title><g id="Capa_2" data-name="Capa 2"><g id="Capa_1-2" data-name="Capa 1"><path class="cls-1" d="M36.58,18.48a18.1,18.1,0,1,0-18.1,18.1A18.1,18.1,0,0,0,36.58,18.48Z"/><path class="cls-2" d="M18.54,22.8a5,5,0,0,0,5-5.05c0-3.19,0-6.37,0-9.56a4.85,4.85,0,0,0-1.41-3.51,10.13,10.13,0,0,0-1-.83V7.59c0,.76-.29,1.17-.83,1.17s-.82-.39-.83-1.18c0-1.16,0-2.32,0-3.48,0-1,0-1-1-1-.11,0-.23,0-.34,0-.6,0-.76.24-.74.82.05,1.27,0,2.54,0,3.82a.86.86,0,0,1-.74,1c-.5.09-.88-.31-.89-.94,0-1.24,0-2.49,0-3.93A5,5,0,0,0,13.4,8.1q-.08,4.85,0,9.69A5,5,0,0,0,18.54,22.8ZM21,25.73a8.3,8.3,0,0,0,5.85-7.88,1,1,0,0,0-.95-1.12,1.06,1.06,0,0,0-1.06,1c0,.09,0,.18,0,.27a6.36,6.36,0,0,1-12.43,1.65,11.38,11.38,0,0,1-.32-1.94,1,1,0,1,0-2,.08,2.67,2.67,0,0,0,0,.4,8.41,8.41,0,0,0,6,7.58c.34.11.68.13.67.67,0,1.62,0,3.23,0,4.85a2.89,2.89,0,0,1-.09.54c-.78,0-1.5,0-2.23,0s-1.15.39-1.17,1,.45,1,1.19,1h8c.77,0,1.2-.37,1.21-1s-.42-1-1.18-1-1.45,0-2.28,0c0-1.73,0-3.37,0-5A.93.93,0,0,1,21,25.73Z"/><line class="cls-3" x1="34.44" y1="2.51" x2="2.51" y2="34.44"/></g></g></svg>