<svg xmlns="http://www.w3.org/2000/svg" xmlns:xlink="http://www.w3.org/1999/xlink" viewBox="0 0 12.89 14.98"><defs><style>.cls-1{fill-rule:evenodd;fill:url(#linear-gradient);}</style><linearGradient id="linear-gradient" x1="6.44" y1="14.98" x2="6.44" gradientUnits="userSpaceOnUse"><stop offset="0" stop-color="#f39200"/><stop offset="1" stop-color="#e6332a"/></linearGradient></defs><title>Recurso 13</title><g id="Capa_2" data-name="Capa 2"><g id="Capa_1-2" data-name="Capa 1"><path class="cls-1" d="M5.73,2.12V0L10,2.85,5.73,5.72V3.58A3.46,3.46,0,0,0,4.19,4,4.89,4.89,0,0,0,1.42,8.77a5,5,0,0,0,10,.37,13.39,13.39,0,0,0-.06-1.67.64.64,0,0,1,.11-.41c.28-.32.6-.62.91-.93a6.34,6.34,0,0,1-1,6.55,6.43,6.43,0,0,1-7.48,1.77A6.35,6.35,0,0,1,.06,7.69,6.41,6.41,0,0,1,5.73,2.12Z"/></g></g></svg>